solid OpenSCAD_Model
  facet normal -1 0 0
    outer loop
      vertex -10.55 -7.55 6
      vertex -10.55 7.55 6
      vertex -10.55 -7.55 0
    endloop
  endfacet
  facet normal 0 0 1
    outer loop
      vertex -10.55 -7.55 6
      vertex -9.75 -6.75 6
      vertex -9.75 6.75 6
    endloop
  endfacet
  facet normal 0 -1 0
    outer loop
      vertex -10.55 -7.55 6
      vertex -10.55 -7.55 0
      vertex 10.55 -7.55 6
    endloop
  endfacet
  facet normal 0 0 1
    outer loop
      vertex -10.55 -7.55 6
      vertex 10.55 -7.55 6
      vertex -9.75 -6.75 6
    endloop
  endfacet
  facet normal -1 0 0
    outer loop
      vertex -10.55 7.55 6
      vertex -10.55 7.55 0
      vertex -10.55 -7.55 0
    endloop
  endfacet
  facet normal 0 0 1
    outer loop
      vertex -10.55 -7.55 6
      vertex -9.75 6.75 6
      vertex -10.55 7.55 6
    endloop
  endfacet
  facet normal 0 1 0
    outer loop
      vertex -10.55 7.55 6
      vertex 10.55 7.55 6
      vertex -10.55 7.55 0
    endloop
  endfacet
  facet normal 0 0 1
    outer loop
      vertex -10.55 7.55 6
      vertex -9.75 6.75 6
      vertex 9.75 6.75 6
    endloop
  endfacet
  facet normal 0 -1 0
    outer loop
      vertex 10.55 -7.55 6
      vertex -10.55 -7.55 0
      vertex 10.55 -7.55 0
    endloop
  endfacet
  facet normal 0 0 1
    outer loop
      vertex -9.75 -6.75 6
      vertex 10.55 -7.55 6
      vertex 9.75 -6.75 6
    endloop
  endfacet
  facet normal 1 0 0
    outer loop
      vertex 10.55 -7.55 6
      vertex 10.55 -7.55 0
      vertex 10.55 7.55 6
    endloop
  endfacet
  facet normal 0 0 1
    outer loop
      vertex 9.75 -6.75 6
      vertex 10.55 -7.55 6
      vertex 10.55 7.55 6
    endloop
  endfacet
  facet normal 0 1 0
    outer loop
      vertex 10.55 7.55 6
      vertex 10.55 7.55 0
      vertex -10.55 7.55 0
    endloop
  endfacet
  facet normal 1 0 0
    outer loop
      vertex 10.55 7.55 6
      vertex 10.55 -7.55 0
      vertex 10.55 7.55 0
    endloop
  endfacet
  facet normal 0 0 1
    outer loop
      vertex -10.55 7.55 6
      vertex 9.75 6.75 6
      vertex 10.55 7.55 6
    endloop
  endfacet
  facet normal 0 0 1
    outer loop
      vertex 9.75 -6.75 6
      vertex 10.55 7.55 6
      vertex 9.75 6.75 6
    endloop
  endfacet
  facet normal 0 1 0
    outer loop
      vertex -9.75 -6.75 6
      vertex 9.75 -6.75 0
      vertex -9.75 -6.75 0
    endloop
  endfacet
  facet normal 1 0 0
    outer loop
      vertex -9.75 -6.75 6
      vertex -9.75 -6.75 0
      vertex -9.75 6.75 6
    endloop
  endfacet
  facet normal 1 0 0
    outer loop
      vertex -9.75 6.75 6
      vertex -9.75 -6.75 0
      vertex -9.75 6.75 0
    endloop
  endfacet
  facet normal 0 -1 0
    outer loop
      vertex -9.75 6.75 6
      vertex -9.75 6.75 0
      vertex 9.75 6.75 6
    endloop
  endfacet
  facet normal -1 0 0
    outer loop
      vertex 9.75 -6.75 6
      vertex 9.75 6.75 0
      vertex 9.75 -6.75 0
    endloop
  endfacet
  facet normal 0 1 0
    outer loop
      vertex -9.75 -6.75 6
      vertex 9.75 -6.75 6
      vertex 9.75 -6.75 0
    endloop
  endfacet
  facet normal 0 -1 0
    outer loop
      vertex 9.75 6.75 6
      vertex -9.75 6.75 0
      vertex 9.75 6.75 0
    endloop
  endfacet
  facet normal -1 0 0
    outer loop
      vertex 9.75 -6.75 6
      vertex 9.75 6.75 6
      vertex 9.75 6.75 0
    endloop
  endfacet
  facet normal -1 0 0
    outer loop
      vertex -13.51 -9.31 -1.6
      vertex -13.51 -9.31 0
      vertex -13.51 9.31 0
    endloop
  endfacet
  facet normal 0 0 1
    outer loop
      vertex -13.51 -9.31 0
      vertex -10.55 -7.55 0
      vertex -10.55 7.55 0
    endloop
  endfacet
  facet normal 0 -1 0
    outer loop
      vertex -13.51 -9.31 -1.6
      vertex 13.51 -9.31 0
      vertex -13.51 -9.31 0
    endloop
  endfacet
  facet normal 0 0 1
    outer loop
      vertex -13.51 -9.31 0
      vertex 10.55 -7.55 0
      vertex -10.55 -7.55 0
    endloop
  endfacet
  facet normal -1 0 0
    outer loop
      vertex -13.51 -9.31 -1.6
      vertex -13.51 9.31 0
      vertex -13.51 9.31 -1.6
    endloop
  endfacet
  facet normal 0 0 1
    outer loop
      vertex -13.51 -9.31 0
      vertex -10.55 7.55 0
      vertex -13.51 9.31 0
    endloop
  endfacet
  facet normal 0 0 -1
    outer loop
      vertex -13.51 -9.31 -1.6
      vertex -13.51 9.31 -1.6
      vertex 13.51 9.31 -1.6
    endloop
  endfacet
  facet normal 0 0 1
    outer loop
      vertex -9.75 -6.75 0
      vertex 9.75 6.75 0
      vertex -9.75 6.75 0
    endloop
  endfacet
  facet normal 0 1 0
    outer loop
      vertex -13.51 9.31 -1.6
      vertex -13.51 9.31 0
      vertex 13.51 9.31 -1.6
    endloop
  endfacet
  facet normal 0 0 1
    outer loop
      vertex -13.51 9.31 0
      vertex -10.55 7.55 0
      vertex 13.51 9.31 0
    endloop
  endfacet
  facet normal 0 -1 0
    outer loop
      vertex -13.51 -9.31 -1.6
      vertex 13.51 -9.31 -1.6
      vertex 13.51 -9.31 0
    endloop
  endfacet
  facet normal 0 0 1
    outer loop
      vertex -13.51 -9.31 0
      vertex 13.51 -9.31 0
      vertex 10.55 -7.55 0
    endloop
  endfacet
  facet normal 0 0 1
    outer loop
      vertex 9.75 6.75 0
      vertex -9.75 -6.75 0
      vertex 9.75 -6.75 0
    endloop
  endfacet
  facet normal 0 0 -1
    outer loop
      vertex -13.51 -9.31 -1.6
      vertex 13.51 9.31 -1.6
      vertex 13.51 -9.31 -1.6
    endloop
  endfacet
  facet normal 1 0 0
    outer loop
      vertex 13.51 -9.31 -1.6
      vertex 13.51 9.31 -1.6
      vertex 13.51 -9.31 0
    endloop
  endfacet
  facet normal 0 0 1
    outer loop
      vertex 13.51 -9.31 0
      vertex 13.51 9.31 0
      vertex 10.55 -7.55 0
    endloop
  endfacet
  facet normal 0 0 1
    outer loop
      vertex 13.51 9.31 0
      vertex -10.55 7.55 0
      vertex 10.55 7.55 0
    endloop
  endfacet
  facet normal 0 1 0
    outer loop
      vertex -13.51 9.31 0
      vertex 13.51 9.31 0
      vertex 13.51 9.31 -1.6
    endloop
  endfacet
  facet normal 0 0 1
    outer loop
      vertex 13.51 9.31 0
      vertex 10.55 7.55 0
      vertex 10.55 -7.55 0
    endloop
  endfacet
  facet normal 1 0 0
    outer loop
      vertex 13.51 -9.31 0
      vertex 13.51 9.31 -1.6
      vertex 13.51 9.31 0
    endloop
  endfacet
endsolid OpenSCAD_Model
