solid OpenSCAD_Model
  facet normal 0.8819212643483549 0.47139673682599775 0
    outer loop
      vertex -1.662983158520316 -0.6888301782571616 -0.4099999999999997
      vertex -1.662983158520316 -0.6888301782571616 0
      vertex -1.4966453021445814 -1.000026419435284 -0.4099999999999997
    endloop
  endfacet
  facet normal 0.9569403357322088 0.2902846772544625 -1.6519418826473287e-17
    outer loop
      vertex -1.662983158520316 -0.6888301782571616 -0.4099999999999997
      vertex -1.7654135047258148 -0.35116257962903086 -0.4099999999999997
      vertex -1.7654135047258148 -0.35116257962903086 0
    endloop
  endfacet
  facet normal 0.9951847266721968 0.0980171403295607 8.274092850794441e-19
    outer loop
      vertex -1.7654135047258148 -0.35116257962903086 -0.4099999999999997
      vertex -1.8 0 -0.4099999999999997
      vertex -1.8 0 0
    endloop
  endfacet
  facet normal 0.9569403357322088 0.2902846772544625 0
    outer loop
      vertex -1.662983158520316 -0.6888301782571616 -0.4099999999999997
      vertex -1.7654135047258148 -0.35116257962903086 0
      vertex -1.662983158520316 -0.6888301782571616 0
    endloop
  endfacet
  facet normal 0.9951847266721968 0.0980171403295607 0
    outer loop
      vertex -1.7654135047258148 -0.35116257962903086 -0.4099999999999997
      vertex -1.8 0 0
      vertex -1.7654135047258148 -0.35116257962903086 0
    endloop
  endfacet
  facet normal 0.47139673682599775 0.8819212643483549 0
    outer loop
      vertex -1.000026419435284 -1.4966453021445814 -0.4099999999999997
      vertex -1.000026419435284 -1.4966453021445814 0
      vertex -0.6888301782571616 -1.662983158520316 -0.4099999999999997
    endloop
  endfacet
  facet normal 0.6343932841636449 0.7730104533627377 0
    outer loop
      vertex -1.000026419435284 -1.4966453021445814 -0.4099999999999997
      vertex -1.2727922061357857 -1.2727922061357857 0
      vertex -1.000026419435284 -1.4966453021445814 0
    endloop
  endfacet
  facet normal 0.47139673682599775 0.8819212643483549 0
    outer loop
      vertex -0.6888301782571616 -1.662983158520316 -0.4099999999999997
      vertex -1.000026419435284 -1.4966453021445814 0
      vertex -0.6888301782571616 -1.662983158520316 0
    endloop
  endfacet
  facet normal 0.2902846772544625 0.9569403357322088 0
    outer loop
      vertex -0.6888301782571616 -1.662983158520316 -0.4099999999999997
      vertex -0.6888301782571616 -1.662983158520316 0
      vertex -0.35116257962903086 -1.7654135047258148 -0.4099999999999997
    endloop
  endfacet
  facet normal 0.0980171403295607 0.9951847266721968 0
    outer loop
      vertex -0.35116257962903086 -1.7654135047258148 -0.4099999999999997
      vertex -0.35116257962903086 -1.7654135047258148 0
      vertex 0 -1.8 -0.4099999999999997
    endloop
  endfacet
  facet normal 0.2902846772544625 0.9569403357322088 0
    outer loop
      vertex -0.35116257962903086 -1.7654135047258148 -0.4099999999999997
      vertex -0.6888301782571616 -1.662983158520316 0
      vertex -0.35116257962903086 -1.7654135047258148 0
    endloop
  endfacet
  facet normal 0.0980171403295607 0.9951847266721968 8.274092850794441e-19
    outer loop
      vertex -0.35116257962903086 -1.7654135047258148 0
      vertex 0 -1.8 0
      vertex 0 -1.8 -0.4099999999999997
    endloop
  endfacet
  facet normal 0.7730104533627377 0.6343932841636449 -1.6996123147334597e-17
    outer loop
      vertex -1.2727922061357857 -1.2727922061357857 -0.4099999999999997
      vertex -1.4966453021445814 -1.000026419435284 -0.4099999999999997
      vertex -1.4966453021445814 -1.000026419435284 0
    endloop
  endfacet
  facet normal 0.6343932841636449 0.7730104533627377 -1.6996123147334597e-17
    outer loop
      vertex -1.000026419435284 -1.4966453021445814 -0.4099999999999997
      vertex -1.2727922061357857 -1.2727922061357857 -0.4099999999999997
      vertex -1.2727922061357857 -1.2727922061357857 0
    endloop
  endfacet
  facet normal 0.7730104533627377 0.6343932841636449 0
    outer loop
      vertex -1.2727922061357857 -1.2727922061357857 -0.4099999999999997
      vertex -1.4966453021445814 -1.000026419435284 0
      vertex -1.2727922061357857 -1.2727922061357857 0
    endloop
  endfacet
  facet normal 0.8819212643483549 0.47139673682599775 0
    outer loop
      vertex -1.4966453021445814 -1.000026419435284 -0.4099999999999997
      vertex -1.662983158520316 -0.6888301782571616 0
      vertex -1.4966453021445814 -1.000026419435284 0
    endloop
  endfacet
  facet normal 0.9951847266721968 -0.0980171403295607 -8.274092850794441e-19
    outer loop
      vertex -1.8 0 -0.4099999999999997
      vertex -1.7654135047258148 0.35116257962903086 -0.4099999999999997
      vertex -1.7654135047258148 0.35116257962903086 0
    endloop
  endfacet
  facet normal 0.9569403357322088 -0.2902846772544625 1.6519418826473287e-17
    outer loop
      vertex -1.7654135047258148 0.35116257962903086 -0.4099999999999997
      vertex -1.662983158520316 0.6888301782571616 -0.4099999999999997
      vertex -1.662983158520316 0.6888301782571616 0
    endloop
  endfacet
  facet normal 0.9951847266721968 -0.0980171403295607 0
    outer loop
      vertex -1.8 0 -0.4099999999999997
      vertex -1.7654135047258148 0.35116257962903086 0
      vertex -1.8 0 0
    endloop
  endfacet
  facet normal 0.9569403357322088 -0.2902846772544625 0
    outer loop
      vertex -1.7654135047258148 0.35116257962903086 -0.4099999999999997
      vertex -1.662983158520316 0.6888301782571616 0
      vertex -1.7654135047258148 0.35116257962903086 0
    endloop
  endfacet
  facet normal 0.8819212643483549 -0.47139673682599775 0
    outer loop
      vertex -1.662983158520316 0.6888301782571616 -0.4099999999999997
      vertex -1.4966453021445814 1.000026419435284 0
      vertex -1.662983158520316 0.6888301782571616 0
    endloop
  endfacet
  facet normal 0.8819212643483549 -0.47139673682599775 -9.428831020669833e-18
    outer loop
      vertex -1.662983158520316 0.6888301782571616 -0.4099999999999997
      vertex -1.4966453021445814 1.000026419435284 -0.4099999999999997
      vertex -1.4966453021445814 1.000026419435284 0
    endloop
  endfacet
  facet normal 0.7730104533627377 -0.6343932841636449 1.6996123147334597e-17
    outer loop
      vertex -1.4966453021445814 1.000026419435284 -0.4099999999999997
      vertex -1.2727922061357857 1.2727922061357857 -0.4099999999999997
      vertex -1.2727922061357857 1.2727922061357857 0
    endloop
  endfacet
  facet normal 0.7730104533627377 -0.6343932841636449 0
    outer loop
      vertex -1.4966453021445814 1.000026419435284 -0.4099999999999997
      vertex -1.2727922061357857 1.2727922061357857 0
      vertex -1.4966453021445814 1.000026419435284 0
    endloop
  endfacet
  facet normal 0.6343932841636449 -0.7730104533627377 0
    outer loop
      vertex -1.2727922061357857 1.2727922061357857 -0.4099999999999997
      vertex -1.000026419435284 1.4966453021445814 0
      vertex -1.2727922061357857 1.2727922061357857 0
    endloop
  endfacet
  facet normal 0.6343932841636449 -0.7730104533627377 1.6996123147334597e-17
    outer loop
      vertex -1.2727922061357857 1.2727922061357857 -0.4099999999999997
      vertex -1.000026419435284 1.4966453021445814 -0.4099999999999997
      vertex -1.000026419435284 1.4966453021445814 0
    endloop
  endfacet
  facet normal 0.47139673682599775 -0.8819212643483549 -9.428831020669833e-18
    outer loop
      vertex -1.000026419435284 1.4966453021445814 -0.4099999999999997
      vertex -0.6888301782571616 1.662983158520316 -0.4099999999999997
      vertex -0.6888301782571616 1.662983158520316 0
    endloop
  endfacet
  facet normal 0.47139673682599775 -0.8819212643483549 0
    outer loop
      vertex -1.000026419435284 1.4966453021445814 -0.4099999999999997
      vertex -0.6888301782571616 1.662983158520316 0
      vertex -1.000026419435284 1.4966453021445814 0
    endloop
  endfacet
  facet normal 0.2902846772544625 -0.9569403357322088 1.6519418826473287e-17
    outer loop
      vertex -0.6888301782571616 1.662983158520316 -0.4099999999999997
      vertex -0.35116257962903086 1.7654135047258148 -0.4099999999999997
      vertex -0.35116257962903086 1.7654135047258148 0
    endloop
  endfacet
  facet normal 0.0980171403295607 -0.9951847266721968 -8.274092850794441e-19
    outer loop
      vertex -0.35116257962903086 1.7654135047258148 -0.4099999999999997
      vertex 0 1.8 -0.4099999999999997
      vertex 0 1.8 0
    endloop
  endfacet
  facet normal 0.2902846772544625 -0.9569403357322088 0
    outer loop
      vertex -0.6888301782571616 1.662983158520316 -0.4099999999999997
      vertex -0.35116257962903086 1.7654135047258148 0
      vertex -0.6888301782571616 1.662983158520316 0
    endloop
  endfacet
  facet normal 0.0980171403295607 -0.9951847266721968 0
    outer loop
      vertex -0.35116257962903086 1.7654135047258148 -0.4099999999999997
      vertex 0 1.8 0
      vertex -0.35116257962903086 1.7654135047258148 0
    endloop
  endfacet
  facet normal -0.0980171403295607 0.9951847266721968 0
    outer loop
      vertex 0 -1.8 -0.4099999999999997
      vertex 0 -1.8 0
      vertex 0.35116257962903086 -1.7654135047258148 -0.4099999999999997
    endloop
  endfacet
  facet normal -0.2902846772544625 0.9569403357322088 0
    outer loop
      vertex 0.35116257962903086 -1.7654135047258148 -0.4099999999999997
      vertex 0.35116257962903086 -1.7654135047258148 0
      vertex 0.6888301782571616 -1.662983158520316 -0.4099999999999997
    endloop
  endfacet
  facet normal -0.0980171403295607 0.9951847266721968 0
    outer loop
      vertex 0.35116257962903086 -1.7654135047258148 -0.4099999999999997
      vertex 0 -1.8 0
      vertex 0.35116257962903086 -1.7654135047258148 0
    endloop
  endfacet
  facet normal -0.2902846772544625 0.9569403357322088 0
    outer loop
      vertex 0.6888301782571616 -1.662983158520316 -0.4099999999999997
      vertex 0.35116257962903086 -1.7654135047258148 0
      vertex 0.6888301782571616 -1.662983158520316 0
    endloop
  endfacet
  facet normal -0.47139673682599775 0.8819212643483549 0
    outer loop
      vertex 0.6888301782571616 -1.662983158520316 -0.4099999999999997
      vertex 0.6888301782571616 -1.662983158520316 0
      vertex 1.000026419435284 -1.4966453021445814 -0.4099999999999997
    endloop
  endfacet
  facet normal -0.6343932841636449 0.7730104533627377 0
    outer loop
      vertex 1.000026419435284 -1.4966453021445814 -0.4099999999999997
      vertex 1.000026419435284 -1.4966453021445814 0
      vertex 1.2727922061357857 -1.2727922061357857 -0.4099999999999997
    endloop
  endfacet
  facet normal -0.47139673682599775 0.8819212643483549 0
    outer loop
      vertex 1.000026419435284 -1.4966453021445814 -0.4099999999999997
      vertex 0.6888301782571616 -1.662983158520316 0
      vertex 1.000026419435284 -1.4966453021445814 0
    endloop
  endfacet
  facet normal -0.7730104533627377 0.6343932841636449 0
    outer loop
      vertex 1.2727922061357857 -1.2727922061357857 -0.4099999999999997
      vertex 1.2727922061357857 -1.2727922061357857 0
      vertex 1.4966453021445814 -1.000026419435284 -0.4099999999999997
    endloop
  endfacet
  facet normal -0.8819212643483549 0.47139673682599775 0
    outer loop
      vertex 1.4966453021445814 -1.000026419435284 -0.4099999999999997
      vertex 1.4966453021445814 -1.000026419435284 0
      vertex 1.662983158520316 -0.6888301782571616 -0.4099999999999997
    endloop
  endfacet
  facet normal -0.6343932841636449 0.7730104533627377 0
    outer loop
      vertex 1.2727922061357857 -1.2727922061357857 -0.4099999999999997
      vertex 1.000026419435284 -1.4966453021445814 0
      vertex 1.2727922061357857 -1.2727922061357857 0
    endloop
  endfacet
  facet normal -0.7730104533627377 0.6343932841636449 0
    outer loop
      vertex 1.4966453021445814 -1.000026419435284 -0.4099999999999997
      vertex 1.2727922061357857 -1.2727922061357857 0
      vertex 1.4966453021445814 -1.000026419435284 0
    endloop
  endfacet
  facet normal -0.8819212643483549 0.47139673682599775 0
    outer loop
      vertex 1.662983158520316 -0.6888301782571616 -0.4099999999999997
      vertex 1.4966453021445814 -1.000026419435284 0
      vertex 1.662983158520316 -0.6888301782571616 0
    endloop
  endfacet
  facet normal -0.9569403357322088 0.2902846772544625 0
    outer loop
      vertex 1.662983158520316 -0.6888301782571616 -0.4099999999999997
      vertex 1.662983158520316 -0.6888301782571616 0
      vertex 1.7654135047258148 -0.35116257962903086 -0.4099999999999997
    endloop
  endfacet
  facet normal -0.9951847266721968 0.0980171403295607 0
    outer loop
      vertex 1.7654135047258148 -0.35116257962903086 -0.4099999999999997
      vertex 1.7654135047258148 -0.35116257962903086 0
      vertex 1.8 0 -0.4099999999999997
    endloop
  endfacet
  facet normal -0.9569403357322088 0.2902846772544625 0
    outer loop
      vertex 1.7654135047258148 -0.35116257962903086 -0.4099999999999997
      vertex 1.662983158520316 -0.6888301782571616 0
      vertex 1.7654135047258148 -0.35116257962903086 0
    endloop
  endfacet
  facet normal -0.9951847266721968 0.0980171403295607 -8.274092850794441e-19
    outer loop
      vertex 1.7654135047258148 -0.35116257962903086 0
      vertex 1.8 0 0
      vertex 1.8 0 -0.4099999999999997
    endloop
  endfacet
  facet normal -0.6343932841636449 -0.7730104533627377 0
    outer loop
      vertex 1.2727922061357857 1.2727922061357857 -0.4099999999999997
      vertex 1.2727922061357857 1.2727922061357857 0
      vertex 1.000026419435284 1.4966453021445814 -0.4099999999999997
    endloop
  endfacet
  facet normal -0.7730104533627377 -0.6343932841636449 0
    outer loop
      vertex 1.4966453021445814 1.000026419435284 -0.4099999999999997
      vertex 1.4966453021445814 1.000026419435284 0
      vertex 1.2727922061357857 1.2727922061357857 -0.4099999999999997
    endloop
  endfacet
  facet normal -0.8819212643483549 -0.47139673682599775 0
    outer loop
      vertex 1.4966453021445814 1.000026419435284 -0.4099999999999997
      vertex 1.662983158520316 0.6888301782571616 0
      vertex 1.4966453021445814 1.000026419435284 0
    endloop
  endfacet
  facet normal -0.7730104533627377 -0.6343932841636449 0
    outer loop
      vertex 1.2727922061357857 1.2727922061357857 -0.4099999999999997
      vertex 1.4966453021445814 1.000026419435284 0
      vertex 1.2727922061357857 1.2727922061357857 0
    endloop
  endfacet
  facet normal -0.0980171403295607 -0.9951847266721968 0
    outer loop
      vertex 0.35116257962903086 1.7654135047258148 -0.4099999999999997
      vertex 0.35116257962903086 1.7654135047258148 0
      vertex 0 1.8 -0.4099999999999997
    endloop
  endfacet
  facet normal -0.2902846772544625 -0.9569403357322088 -1.6519418826473287e-17
    outer loop
      vertex 0.35116257962903086 1.7654135047258148 -0.4099999999999997
      vertex 0.6888301782571616 1.662983158520316 -0.4099999999999997
      vertex 0.6888301782571616 1.662983158520316 0
    endloop
  endfacet
  facet normal -0.0980171403295607 -0.9951847266721968 0
    outer loop
      vertex 0 1.8 -0.4099999999999997
      vertex 0.35116257962903086 1.7654135047258148 0
      vertex 0 1.8 0
    endloop
  endfacet
  facet normal -0.2902846772544625 -0.9569403357322088 0
    outer loop
      vertex 0.35116257962903086 1.7654135047258148 -0.4099999999999997
      vertex 0.6888301782571616 1.662983158520316 0
      vertex 0.35116257962903086 1.7654135047258148 0
    endloop
  endfacet
  facet normal -0.47139673682599775 -0.8819212643483549 9.428831020669833e-18
    outer loop
      vertex 0.6888301782571616 1.662983158520316 -0.4099999999999997
      vertex 1.000026419435284 1.4966453021445814 -0.4099999999999997
      vertex 1.000026419435284 1.4966453021445814 0
    endloop
  endfacet
  facet normal -0.47139673682599775 -0.8819212643483549 0
    outer loop
      vertex 0.6888301782571616 1.662983158520316 -0.4099999999999997
      vertex 1.000026419435284 1.4966453021445814 0
      vertex 0.6888301782571616 1.662983158520316 0
    endloop
  endfacet
  facet normal -0.6343932841636449 -0.7730104533627377 0
    outer loop
      vertex 1.000026419435284 1.4966453021445814 -0.4099999999999997
      vertex 1.2727922061357857 1.2727922061357857 0
      vertex 1.000026419435284 1.4966453021445814 0
    endloop
  endfacet
  facet normal -0.9951847266721968 -0.0980171403295607 8.274092850794441e-19
    outer loop
      vertex 1.7654135047258148 0.35116257962903086 -0.4099999999999997
      vertex 1.8 0 -0.4099999999999997
      vertex 1.8 0 0
    endloop
  endfacet
  facet normal -0.9569403357322088 -0.2902846772544625 0
    outer loop
      vertex 1.7654135047258148 0.35116257962903086 -0.4099999999999997
      vertex 1.7654135047258148 0.35116257962903086 0
      vertex 1.662983158520316 0.6888301782571616 -0.4099999999999997
    endloop
  endfacet
  facet normal -0.9951847266721968 -0.0980171403295607 0
    outer loop
      vertex 1.7654135047258148 0.35116257962903086 -0.4099999999999997
      vertex 1.8 0 0
      vertex 1.7654135047258148 0.35116257962903086 0
    endloop
  endfacet
  facet normal -0.9569403357322088 -0.2902846772544625 0
    outer loop
      vertex 1.662983158520316 0.6888301782571616 -0.4099999999999997
      vertex 1.7654135047258148 0.35116257962903086 0
      vertex 1.662983158520316 0.6888301782571616 0
    endloop
  endfacet
  facet normal -0.8819212643483549 -0.47139673682599775 9.428831020669833e-18
    outer loop
      vertex 1.4966453021445814 1.000026419435284 -0.4099999999999997
      vertex 1.662983158520316 0.6888301782571616 -0.4099999999999997
      vertex 1.662983158520316 0.6888301782571616 0
    endloop
  endfacet
  facet normal 0 1 0
    outer loop
      vertex -1.6454482671904338 -2.8500000000000005 -3
      vertex -1.6454482671904338 -2.8500000000000005 -0.4099999999999997
      vertex 1.6454482671904338 -2.8500000000000005 -3
    endloop
  endfacet
  facet normal 0.8660254037844386 0.5 5.082373990688821e-17
    outer loop
      vertex -1.6454482671904338 -2.8500000000000005 -3
      vertex -3.2908965343808676 0 -3
      vertex -3.2908965343808676 0 -0.4099999999999997
    endloop
  endfacet
  facet normal 0.8660254037844386 0.5 0
    outer loop
      vertex -1.6454482671904338 -2.8500000000000005 -3
      vertex -3.2908965343808676 0 -0.4099999999999997
      vertex -1.6454482671904338 -2.8500000000000005 -0.4099999999999997
    endloop
  endfacet
  facet normal 0 0 -1
    outer loop
      vertex -1.6454482671904338 -2.8500000000000005 -0.4099999999999997
      vertex -3.2908965343808676 0 -0.4099999999999997
      vertex -1.4966453021445814 -1.000026419435284 -0.4099999999999997
    endloop
  endfacet
  facet normal 0 0 -1
    outer loop
      vertex -1.662983158520316 -0.6888301782571616 -0.4099999999999997
      vertex -1.4966453021445814 -1.000026419435284 -0.4099999999999997
      vertex -3.2908965343808676 0 -0.4099999999999997
    endloop
  endfacet
  facet normal 0 0 -1
    outer loop
      vertex -1.662983158520316 -0.6888301782571616 -0.4099999999999997
      vertex -3.2908965343808676 0 -0.4099999999999997
      vertex -1.7654135047258148 -0.35116257962903086 -0.4099999999999997
    endloop
  endfacet
  facet normal 0 0 -1
    outer loop
      vertex -1.7654135047258148 -0.35116257962903086 -0.4099999999999997
      vertex -3.2908965343808676 0 -0.4099999999999997
      vertex -1.8 0 -0.4099999999999997
    endloop
  endfacet
  facet normal 0 0 -1
    outer loop
      vertex -1.6454482671904338 -2.8500000000000005 -0.4099999999999997
      vertex -1.2727922061357857 -1.2727922061357857 -0.4099999999999997
      vertex -1.000026419435284 -1.4966453021445814 -0.4099999999999997
    endloop
  endfacet
  facet normal 0 0 -1
    outer loop
      vertex -1.6454482671904338 -2.8500000000000005 -0.4099999999999997
      vertex -1.4966453021445814 -1.000026419435284 -0.4099999999999997
      vertex -1.2727922061357857 -1.2727922061357857 -0.4099999999999997
    endloop
  endfacet
  facet normal 0 0 -1
    outer loop
      vertex -1.6454482671904338 -2.8500000000000005 -0.4099999999999997
      vertex -1.000026419435284 -1.4966453021445814 -0.4099999999999997
      vertex -0.6888301782571616 -1.662983158520316 -0.4099999999999997
    endloop
  endfacet
  facet normal 0 0 -1
    outer loop
      vertex -1.6454482671904338 -2.8500000000000005 -0.4099999999999997
      vertex -0.6888301782571616 -1.662983158520316 -0.4099999999999997
      vertex -0.35116257962903086 -1.7654135047258148 -0.4099999999999997
    endloop
  endfacet
  facet normal 0 0 -1
    outer loop
      vertex -1.6454482671904338 -2.8500000000000005 -0.4099999999999997
      vertex -0.35116257962903086 -1.7654135047258148 -0.4099999999999997
      vertex 0 -1.8 -0.4099999999999997
    endloop
  endfacet
  facet normal 0 0 -1
    outer loop
      vertex -1.6454482671904338 -2.8500000000000005 -0.4099999999999997
      vertex 0 -1.8 -0.4099999999999997
      vertex 0.35116257962903086 -1.7654135047258148 -0.4099999999999997
    endloop
  endfacet
  facet normal 0.8660254037844386 -0.5 -5.082373990688821e-17
    outer loop
      vertex -3.2908965343808676 0 -3
      vertex -1.6454482671904338 2.8500000000000005 -3
      vertex -1.6454482671904338 2.8500000000000005 -0.4099999999999997
    endloop
  endfacet
  facet normal 0.8660254037844386 -0.5 0
    outer loop
      vertex -3.2908965343808676 0 -3
      vertex -1.6454482671904338 2.8500000000000005 -0.4099999999999997
      vertex -3.2908965343808676 0 -0.4099999999999997
    endloop
  endfacet
  facet normal 0 0 -1
    outer loop
      vertex -3.2908965343808676 0 -0.4099999999999997
      vertex -1.7654135047258148 0.35116257962903086 -0.4099999999999997
      vertex -1.8 0 -0.4099999999999997
    endloop
  endfacet
  facet normal 0 0 -1
    outer loop
      vertex -3.2908965343808676 0 -0.4099999999999997
      vertex -1.662983158520316 0.6888301782571616 -0.4099999999999997
      vertex -1.7654135047258148 0.35116257962903086 -0.4099999999999997
    endloop
  endfacet
  facet normal 0 0 -1
    outer loop
      vertex -3.2908965343808676 0 -0.4099999999999997
      vertex -1.6454482671904338 2.8500000000000005 -0.4099999999999997
      vertex -1.662983158520316 0.6888301782571616 -0.4099999999999997
    endloop
  endfacet
  facet normal 0 0 -1
    outer loop
      vertex -1.662983158520316 0.6888301782571616 -0.4099999999999997
      vertex -1.6454482671904338 2.8500000000000005 -0.4099999999999997
      vertex -1.4966453021445814 1.000026419435284 -0.4099999999999997
    endloop
  endfacet
  facet normal 0 0 -1
    outer loop
      vertex -1.4966453021445814 1.000026419435284 -0.4099999999999997
      vertex -1.6454482671904338 2.8500000000000005 -0.4099999999999997
      vertex -1.2727922061357857 1.2727922061357857 -0.4099999999999997
    endloop
  endfacet
  facet normal 0 0 -1
    outer loop
      vertex -1.2727922061357857 1.2727922061357857 -0.4099999999999997
      vertex -1.6454482671904338 2.8500000000000005 -0.4099999999999997
      vertex -1.000026419435284 1.4966453021445814 -0.4099999999999997
    endloop
  endfacet
  facet normal 0 0 -1
    outer loop
      vertex -1.000026419435284 1.4966453021445814 -0.4099999999999997
      vertex -1.6454482671904338 2.8500000000000005 -0.4099999999999997
      vertex -0.6888301782571616 1.662983158520316 -0.4099999999999997
    endloop
  endfacet
  facet normal 0 0 -1
    outer loop
      vertex -0.6888301782571616 1.662983158520316 -0.4099999999999997
      vertex -1.6454482671904338 2.8500000000000005 -0.4099999999999997
      vertex -0.35116257962903086 1.7654135047258148 -0.4099999999999997
    endloop
  endfacet
  facet normal 0 0 -1
    outer loop
      vertex -0.35116257962903086 1.7654135047258148 -0.4099999999999997
      vertex -1.6454482671904338 2.8500000000000005 -0.4099999999999997
      vertex 0 1.8 -0.4099999999999997
    endloop
  endfacet
  facet normal 0 0 -1
    outer loop
      vertex -1.6454482671904338 2.8500000000000005 -0.4099999999999997
      vertex 0.35116257962903086 1.7654135047258148 -0.4099999999999997
      vertex 0 1.8 -0.4099999999999997
    endloop
  endfacet
  facet normal 0 -1 0
    outer loop
      vertex -1.6454482671904338 2.8500000000000005 -3
      vertex 1.6454482671904338 2.8500000000000005 -0.4099999999999997
      vertex -1.6454482671904338 2.8500000000000005 -0.4099999999999997
    endloop
  endfacet
  facet normal -0.8660254037844386 0.5 0
    outer loop
      vertex 1.6454482671904338 -2.8500000000000005 -3
      vertex 1.6454482671904338 -2.8500000000000005 -0.4099999999999997
      vertex 3.2908965343808676 0 -3
    endloop
  endfacet
  facet normal 0 1 0
    outer loop
      vertex -1.6454482671904338 -2.8500000000000005 -0.4099999999999997
      vertex 1.6454482671904338 -2.8500000000000005 -0.4099999999999997
      vertex 1.6454482671904338 -2.8500000000000005 -3
    endloop
  endfacet
  facet normal -0.8660254037844386 0.5 -5.082373990688821e-17
    outer loop
      vertex 1.6454482671904338 -2.8500000000000005 -0.4099999999999997
      vertex 3.2908965343808676 0 -0.4099999999999997
      vertex 3.2908965343808676 0 -3
    endloop
  endfacet
  facet normal 0 0 -1
    outer loop
      vertex -1.6454482671904338 -2.8500000000000005 -0.4099999999999997
      vertex 0.35116257962903086 -1.7654135047258148 -0.4099999999999997
      vertex 1.6454482671904338 -2.8500000000000005 -0.4099999999999997
    endloop
  endfacet
  facet normal 0 0 -1
    outer loop
      vertex 1.6454482671904338 -2.8500000000000005 -0.4099999999999997
      vertex 0.35116257962903086 -1.7654135047258148 -0.4099999999999997
      vertex 0.6888301782571616 -1.662983158520316 -0.4099999999999997
    endloop
  endfacet
  facet normal 0 0 -1
    outer loop
      vertex 1.6454482671904338 -2.8500000000000005 -0.4099999999999997
      vertex 0.6888301782571616 -1.662983158520316 -0.4099999999999997
      vertex 1.000026419435284 -1.4966453021445814 -0.4099999999999997
    endloop
  endfacet
  facet normal 0 0 -1
    outer loop
      vertex 1.6454482671904338 -2.8500000000000005 -0.4099999999999997
      vertex 1.000026419435284 -1.4966453021445814 -0.4099999999999997
      vertex 1.2727922061357857 -1.2727922061357857 -0.4099999999999997
    endloop
  endfacet
  facet normal 0 0 -1
    outer loop
      vertex 1.6454482671904338 -2.8500000000000005 -0.4099999999999997
      vertex 1.2727922061357857 -1.2727922061357857 -0.4099999999999997
      vertex 1.4966453021445814 -1.000026419435284 -0.4099999999999997
    endloop
  endfacet
  facet normal 0 0 -1
    outer loop
      vertex 1.6454482671904338 -2.8500000000000005 -0.4099999999999997
      vertex 1.4966453021445814 -1.000026419435284 -0.4099999999999997
      vertex 3.2908965343808676 0 -0.4099999999999997
    endloop
  endfacet
  facet normal 0 0 -1
    outer loop
      vertex 1.4966453021445814 -1.000026419435284 -0.4099999999999997
      vertex 1.662983158520316 -0.6888301782571616 -0.4099999999999997
      vertex 3.2908965343808676 0 -0.4099999999999997
    endloop
  endfacet
  facet normal 0 0 -1
    outer loop
      vertex 1.662983158520316 -0.6888301782571616 -0.4099999999999997
      vertex 1.7654135047258148 -0.35116257962903086 -0.4099999999999997
      vertex 3.2908965343808676 0 -0.4099999999999997
    endloop
  endfacet
  facet normal 0 0 -1
    outer loop
      vertex 1.7654135047258148 -0.35116257962903086 -0.4099999999999997
      vertex 1.8 0 -0.4099999999999997
      vertex 3.2908965343808676 0 -0.4099999999999997
    endloop
  endfacet
  facet normal -0.8660254037844386 -0.5 5.082373990688821e-17
    outer loop
      vertex 1.6454482671904338 2.8500000000000005 -3
      vertex 3.2908965343808676 0 -3
      vertex 3.2908965343808676 0 -0.4099999999999997
    endloop
  endfacet
  facet normal 0 -1 0
    outer loop
      vertex -1.6454482671904338 2.8500000000000005 -3
      vertex 1.6454482671904338 2.8500000000000005 -3
      vertex 1.6454482671904338 2.8500000000000005 -0.4099999999999997
    endloop
  endfacet
  facet normal -0.8660254037844386 -0.5 0
    outer loop
      vertex 1.6454482671904338 2.8500000000000005 -3
      vertex 3.2908965343808676 0 -0.4099999999999997
      vertex 1.6454482671904338 2.8500000000000005 -0.4099999999999997
    endloop
  endfacet
  facet normal 0 0 -1
    outer loop
      vertex -1.6454482671904338 2.8500000000000005 -0.4099999999999997
      vertex 1.6454482671904338 2.8500000000000005 -0.4099999999999997
      vertex 0.35116257962903086 1.7654135047258148 -0.4099999999999997
    endloop
  endfacet
  facet normal 0 0 -1
    outer loop
      vertex 0.35116257962903086 1.7654135047258148 -0.4099999999999997
      vertex 1.6454482671904338 2.8500000000000005 -0.4099999999999997
      vertex 0.6888301782571616 1.662983158520316 -0.4099999999999997
    endloop
  endfacet
  facet normal 0 0 -1
    outer loop
      vertex 0.6888301782571616 1.662983158520316 -0.4099999999999997
      vertex 1.6454482671904338 2.8500000000000005 -0.4099999999999997
      vertex 1.000026419435284 1.4966453021445814 -0.4099999999999997
    endloop
  endfacet
  facet normal 0 0 -1
    outer loop
      vertex 1.2727922061357857 1.2727922061357857 -0.4099999999999997
      vertex 1.000026419435284 1.4966453021445814 -0.4099999999999997
      vertex 1.6454482671904338 2.8500000000000005 -0.4099999999999997
    endloop
  endfacet
  facet normal 0 0 -1
    outer loop
      vertex 1.7654135047258148 0.35116257962903086 -0.4099999999999997
      vertex 3.2908965343808676 0 -0.4099999999999997
      vertex 1.8 0 -0.4099999999999997
    endloop
  endfacet
  facet normal 0 0 -1
    outer loop
      vertex 1.7654135047258148 0.35116257962903086 -0.4099999999999997
      vertex 1.662983158520316 0.6888301782571616 -0.4099999999999997
      vertex 3.2908965343808676 0 -0.4099999999999997
    endloop
  endfacet
  facet normal 0 0 -1
    outer loop
      vertex 1.4966453021445814 1.000026419435284 -0.4099999999999997
      vertex 3.2908965343808676 0 -0.4099999999999997
      vertex 1.662983158520316 0.6888301782571616 -0.4099999999999997
    endloop
  endfacet
  facet normal 0 0 -1
    outer loop
      vertex 1.4966453021445814 1.000026419435284 -0.4099999999999997
      vertex 1.2727922061357857 1.2727922061357857 -0.4099999999999997
      vertex 3.2908965343808676 0 -0.4099999999999997
    endloop
  endfacet
  facet normal 0 0 -1
    outer loop
      vertex 1.2727922061357857 1.2727922061357857 -0.4099999999999997
      vertex 1.6454482671904338 2.8500000000000005 -0.4099999999999997
      vertex 3.2908965343808676 0 -0.4099999999999997
    endloop
  endfacet
  facet normal -0.7730104533627414 -0.63439328416364 0
    outer loop
      vertex -11.007106781186547 -9.907106781186547 3
      vertex -11.131469612302544 -9.7555702330196 0
      vertex -11.007106781186547 -9.907106781186547 0
    endloop
  endfacet
  facet normal -0.8819212643483548 -0.4713967368259979 0
    outer loop
      vertex -11.131469612302544 -9.7555702330196 3
      vertex -11.223879532511285 -9.582683432365089 0
      vertex -11.131469612302544 -9.7555702330196 0
    endloop
  endfacet
  facet normal -0.9569403357322079 -0.2902846772544653 0
    outer loop
      vertex -11.223879532511285 -9.582683432365089 3
      vertex -11.28078528040323 -9.395090322016127 0
      vertex -11.223879532511285 -9.582683432365089 0
    endloop
  endfacet
  facet normal -0.9951847266721968 -0.09801714032956084 0
    outer loop
      vertex -11.28078528040323 -9.395090322016127 3
      vertex -11.299999999999999 -9.2 0
      vertex -11.28078528040323 -9.395090322016127 0
    endloop
  endfacet
  facet normal -0.6343932841636445 -0.7730104533627378 0
    outer loop
      vertex -10.855570233019602 -10.031469612302544 3
      vertex -11.007106781186547 -9.907106781186547 0
      vertex -10.855570233019602 -10.031469612302544 0
    endloop
  endfacet
  facet normal -0.47139673682599414 -0.8819212643483569 0
    outer loop
      vertex -10.682683432365089 -10.123879532511285 3
      vertex -10.855570233019602 -10.031469612302544 0
      vertex -10.682683432365089 -10.123879532511285 0
    endloop
  endfacet
  facet normal -0.2902846772544653 -0.9569403357322079 0
    outer loop
      vertex -10.495090322016127 -10.18078528040323 3
      vertex -10.682683432365089 -10.123879532511285 0
      vertex -10.495090322016127 -10.18078528040323 0
    endloop
  endfacet
  facet normal -0.09801714032956084 -0.9951847266721968 0
    outer loop
      vertex -10.299999999999999 -10.2 3
      vertex -10.495090322016127 -10.18078528040323 0
      vertex -10.299999999999999 -10.2 0
    endloop
  endfacet
  facet normal -0.7730104533627414 -0.63439328416364 1.583334021447818e-18
    outer loop
      vertex -11.007106781186547 -9.907106781186547 3
      vertex -11.131469612302544 -9.7555702330196 3
      vertex -11.131469612302544 -9.7555702330196 0
    endloop
  endfacet
  facet normal -0.8819212643483548 -0.4713967368259979 1.892886989234502e-18
    outer loop
      vertex -11.131469612302544 -9.7555702330196 3
      vertex -11.223879532511285 -9.582683432365089 3
      vertex -11.223879532511285 -9.582683432365089 0
    endloop
  endfacet
  facet normal -0.9569403357322079 -0.2902846772544653 1.3712208537251859e-18
    outer loop
      vertex -11.223879532511285 -9.582683432365089 3
      vertex -11.28078528040323 -9.395090322016127 3
      vertex -11.28078528040323 -9.395090322016127 0
    endloop
  endfacet
  facet normal -0.9951847266721968 -0.09801714032956084 -2.446526489612333e-19
    outer loop
      vertex -11.28078528040323 -9.395090322016127 3
      vertex -11.299999999999999 -9.2 3
      vertex -11.299999999999999 -9.2 0
    endloop
  endfacet
  facet normal -0.6343932841636445 -0.7730104533627378 0
    outer loop
      vertex -11.007106781186547 -9.907106781186547 3
      vertex -11.007106781186547 -9.907106781186547 0
      vertex -10.855570233019602 -10.031469612302544 3
    endloop
  endfacet
  facet normal -0.47139673682599414 -0.8819212643483569 0
    outer loop
      vertex -10.855570233019602 -10.031469612302544 3
      vertex -10.855570233019602 -10.031469612302544 0
      vertex -10.682683432365089 -10.123879532511285 3
    endloop
  endfacet
  facet normal -0.2902846772544653 -0.9569403357322079 0
    outer loop
      vertex -10.682683432365089 -10.123879532511285 3
      vertex -10.682683432365089 -10.123879532511285 0
      vertex -10.495090322016127 -10.18078528040323 3
    endloop
  endfacet
  facet normal -0.09801714032956084 -0.9951847266721968 0
    outer loop
      vertex -10.495090322016127 -10.18078528040323 3
      vertex -10.495090322016127 -10.18078528040323 0
      vertex -10.299999999999999 -10.2 3
    endloop
  endfacet
  facet normal -1 0 0
    outer loop
      vertex -11.299999999999999 -9.2 3
      vertex -11.299999999999999 9.2 0
      vertex -11.299999999999999 -9.2 0
    endloop
  endfacet
  facet normal 0 0 1
    outer loop
      vertex -11.007106781186547 -9.907106781186547 3
      vertex -11.007106781186547 9.907106781186547 3
      vertex -11.131469612302544 -9.7555702330196 3
    endloop
  endfacet
  facet normal 0 0 1
    outer loop
      vertex -11.223879532511285 -9.582683432365089 3
      vertex -11.007106781186547 9.907106781186547 3
      vertex -11.28078528040323 -9.395090322016127 3
    endloop
  endfacet
  facet normal 0 0 1
    outer loop
      vertex -11.131469612302544 -9.7555702330196 3
      vertex -11.007106781186547 9.907106781186547 3
      vertex -11.223879532511285 -9.582683432365089 3
    endloop
  endfacet
  facet normal 0 0 1
    outer loop
      vertex -11.28078528040323 -9.395090322016127 3
      vertex -11.007106781186547 9.907106781186547 3
      vertex -11.299999999999999 -9.2 3
    endloop
  endfacet
  facet normal 0 0 1
    outer loop
      vertex -10.855570233019602 -10.031469612302544 3
      vertex -10.682683432365089 -10.123879532511285 3
      vertex -11.007106781186547 9.907106781186547 3
    endloop
  endfacet
  facet normal 0 0 1
    outer loop
      vertex -11.007106781186547 -9.907106781186547 3
      vertex -10.855570233019602 -10.031469612302544 3
      vertex -11.007106781186547 9.907106781186547 3
    endloop
  endfacet
  facet normal 0 0 1
    outer loop
      vertex -10.682683432365089 -10.123879532511285 3
      vertex -10.495090322016127 -10.18078528040323 3
      vertex -11.007106781186547 9.907106781186547 3
    endloop
  endfacet
  facet normal 0 0 1
    outer loop
      vertex -10.495090322016127 -10.18078528040323 3
      vertex -10.299999999999999 -10.2 3
      vertex -11.007106781186547 9.907106781186547 3
    endloop
  endfacet
  facet normal 0 0 1
    outer loop
      vertex -10.299999999999999 -10.2 3
      vertex -9.799999999999999 -8.7 3
      vertex -11.007106781186547 9.907106781186547 3
    endloop
  endfacet
  facet normal 0 -1 0
    outer loop
      vertex -10.299999999999999 -10.2 3
      vertex -10.299999999999999 -10.2 0
      vertex 10.299999999999999 -10.2 3
    endloop
  endfacet
  facet normal 0 0 1
    outer loop
      vertex -10.299999999999999 -10.2 3
      vertex 10.299999999999999 -10.2 3
      vertex -9.799999999999999 -8.7 3
    endloop
  endfacet
  facet normal -1 0 0
    outer loop
      vertex -11.299999999999999 -9.2 3
      vertex -11.299999999999999 9.2 3
      vertex -11.299999999999999 9.2 0
    endloop
  endfacet
  facet normal 0 0 1
    outer loop
      vertex -11.299999999999999 -9.2 3
      vertex -11.007106781186547 9.907106781186547 3
      vertex -11.299999999999999 9.2 3
    endloop
  endfacet
  facet normal 0 0 1
    outer loop
      vertex -9.799999999999999 -8.7 3
      vertex -9.799999999999999 8.7 3
      vertex -11.007106781186547 9.907106781186547 3
    endloop
  endfacet
  facet normal -0.9951847266721968 0.09801714032956084 0
    outer loop
      vertex -11.299999999999999 9.2 3
      vertex -11.28078528040323 9.395090322016127 0
      vertex -11.299999999999999 9.2 0
    endloop
  endfacet
  facet normal -0.9569403357322079 0.2902846772544653 0
    outer loop
      vertex -11.28078528040323 9.395090322016127 3
      vertex -11.223879532511285 9.582683432365089 0
      vertex -11.28078528040323 9.395090322016127 0
    endloop
  endfacet
  facet normal -0.8819212643483548 0.4713967368259979 0
    outer loop
      vertex -11.223879532511285 9.582683432365089 3
      vertex -11.131469612302544 9.7555702330196 0
      vertex -11.223879532511285 9.582683432365089 0
    endloop
  endfacet
  facet normal -0.7730104533627414 0.63439328416364 0
    outer loop
      vertex -11.007106781186547 9.907106781186547 3
      vertex -11.007106781186547 9.907106781186547 0
      vertex -11.131469612302544 9.7555702330196 0
    endloop
  endfacet
  facet normal -0.6343932841636445 0.7730104533627378 0
    outer loop
      vertex -11.007106781186547 9.907106781186547 3
      vertex -10.855570233019602 10.031469612302544 0
      vertex -11.007106781186547 9.907106781186547 0
    endloop
  endfacet
  facet normal -0.47139673682599414 0.8819212643483569 0
    outer loop
      vertex -10.855570233019602 10.031469612302544 3
      vertex -10.682683432365089 10.123879532511285 0
      vertex -10.855570233019602 10.031469612302544 0
    endloop
  endfacet
  facet normal -0.2902846772544653 0.9569403357322079 0
    outer loop
      vertex -10.682683432365089 10.123879532511285 3
      vertex -10.495090322016127 10.18078528040323 0
      vertex -10.682683432365089 10.123879532511285 0
    endloop
  endfacet
  facet normal -0.09801714032956084 0.9951847266721968 0
    outer loop
      vertex -10.495090322016127 10.18078528040323 3
      vertex -10.299999999999999 10.2 0
      vertex -10.495090322016127 10.18078528040323 0
    endloop
  endfacet
  facet normal -0.9951847266721968 0.09801714032956084 2.446526489612333e-19
    outer loop
      vertex -11.299999999999999 9.2 3
      vertex -11.28078528040323 9.395090322016127 3
      vertex -11.28078528040323 9.395090322016127 0
    endloop
  endfacet
  facet normal -0.9569403357322079 0.2902846772544653 -1.3712208537251859e-18
    outer loop
      vertex -11.28078528040323 9.395090322016127 3
      vertex -11.223879532511285 9.582683432365089 3
      vertex -11.223879532511285 9.582683432365089 0
    endloop
  endfacet
  facet normal -0.8819212643483548 0.4713967368259979 -1.892886989234502e-18
    outer loop
      vertex -11.223879532511285 9.582683432365089 3
      vertex -11.131469612302544 9.7555702330196 3
      vertex -11.131469612302544 9.7555702330196 0
    endloop
  endfacet
  facet normal -0.7730104533627414 0.63439328416364 0
    outer loop
      vertex -11.131469612302544 9.7555702330196 3
      vertex -11.007106781186547 9.907106781186547 3
      vertex -11.131469612302544 9.7555702330196 0
    endloop
  endfacet
  facet normal -0.6343932841636445 0.7730104533627378 3.412261475631027e-19
    outer loop
      vertex -11.007106781186547 9.907106781186547 3
      vertex -10.855570233019602 10.031469612302544 3
      vertex -10.855570233019602 10.031469612302544 0
    endloop
  endfacet
  facet normal -0.47139673682599414 0.8819212643483569 -4.119206161357444e-20
    outer loop
      vertex -10.855570233019602 10.031469612302544 3
      vertex -10.682683432365089 10.123879532511285 3
      vertex -10.682683432365089 10.123879532511285 0
    endloop
  endfacet
  facet normal -0.2902846772544653 0.9569403357322079 -1.3712208537251859e-18
    outer loop
      vertex -10.682683432365089 10.123879532511285 3
      vertex -10.495090322016127 10.18078528040323 3
      vertex -10.495090322016127 10.18078528040323 0
    endloop
  endfacet
  facet normal -0.09801714032956084 0.9951847266721968 2.446526489612333e-19
    outer loop
      vertex -10.495090322016127 10.18078528040323 3
      vertex -10.299999999999999 10.2 3
      vertex -10.299999999999999 10.2 0
    endloop
  endfacet
  facet normal 0 0 1
    outer loop
      vertex -11.299999999999999 9.2 3
      vertex -11.007106781186547 9.907106781186547 3
      vertex -11.28078528040323 9.395090322016127 3
    endloop
  endfacet
  facet normal 0 0 1
    outer loop
      vertex -11.28078528040323 9.395090322016127 3
      vertex -11.007106781186547 9.907106781186547 3
      vertex -11.223879532511285 9.582683432365089 3
    endloop
  endfacet
  facet normal 0 0 1
    outer loop
      vertex -11.223879532511285 9.582683432365089 3
      vertex -11.007106781186547 9.907106781186547 3
      vertex -11.131469612302544 9.7555702330196 3
    endloop
  endfacet
  facet normal 0 1 0
    outer loop
      vertex -10.299999999999999 10.2 3
      vertex 10.299999999999999 10.2 0
      vertex -10.299999999999999 10.2 0
    endloop
  endfacet
  facet normal 0 0 1
    outer loop
      vertex -11.007106781186547 9.907106781186547 3
      vertex 9.799999999999999 8.7 3
      vertex -10.855570233019602 10.031469612302544 3
    endloop
  endfacet
  facet normal 0 0 1
    outer loop
      vertex -11.007106781186547 9.907106781186547 3
      vertex -9.799999999999999 8.7 3
      vertex 9.799999999999999 8.7 3
    endloop
  endfacet
  facet normal 0 0 1
    outer loop
      vertex -10.855570233019602 10.031469612302544 3
      vertex 9.799999999999999 8.7 3
      vertex -10.682683432365089 10.123879532511285 3
    endloop
  endfacet
  facet normal 0 0 1
    outer loop
      vertex -10.682683432365089 10.123879532511285 3
      vertex 9.799999999999999 8.7 3
      vertex -10.495090322016127 10.18078528040323 3
    endloop
  endfacet
  facet normal 0 0 1
    outer loop
      vertex -10.495090322016127 10.18078528040323 3
      vertex 9.799999999999999 8.7 3
      vertex -10.299999999999999 10.2 3
    endloop
  endfacet
  facet normal 0 -1 0
    outer loop
      vertex 10.299999999999999 -10.2 3
      vertex -10.299999999999999 -10.2 0
      vertex 10.299999999999999 -10.2 0
    endloop
  endfacet
  facet normal 0 0 1
    outer loop
      vertex -9.799999999999999 -8.7 3
      vertex 10.299999999999999 -10.2 3
      vertex 10.495090322016127 -10.18078528040323 3
    endloop
  endfacet
  facet normal 0 0 1
    outer loop
      vertex -9.799999999999999 -8.7 3
      vertex 10.495090322016127 -10.18078528040323 3
      vertex 10.682683432365089 -10.123879532511285 3
    endloop
  endfacet
  facet normal 0 0 1
    outer loop
      vertex -9.799999999999999 -8.7 3
      vertex 10.682683432365089 -10.123879532511285 3
      vertex 10.855570233019602 -10.031469612302544 3
    endloop
  endfacet
  facet normal 0 0 1
    outer loop
      vertex -9.799999999999999 -8.7 3
      vertex 11.007106781186547 -9.907106781186547 3
      vertex 9.799999999999999 -8.7 3
    endloop
  endfacet
  facet normal 0 0 1
    outer loop
      vertex -9.799999999999999 -8.7 3
      vertex 10.855570233019602 -10.031469612302544 3
      vertex 11.007106781186547 -9.907106781186547 3
    endloop
  endfacet
  facet normal 0.09801714032956084 -0.9951847266721968 0
    outer loop
      vertex 10.495090322016127 -10.18078528040323 3
      vertex 10.299999999999999 -10.2 0
      vertex 10.495090322016127 -10.18078528040323 0
    endloop
  endfacet
  facet normal 0.2902846772544653 -0.9569403357322079 0
    outer loop
      vertex 10.682683432365089 -10.123879532511285 3
      vertex 10.495090322016127 -10.18078528040323 0
      vertex 10.682683432365089 -10.123879532511285 0
    endloop
  endfacet
  facet normal 0.47139673682599414 -0.8819212643483569 0
    outer loop
      vertex 10.855570233019602 -10.031469612302544 3
      vertex 10.682683432365089 -10.123879532511285 0
      vertex 10.855570233019602 -10.031469612302544 0
    endloop
  endfacet
  facet normal 0.6343932841636445 -0.7730104533627378 0
    outer loop
      vertex 11.007106781186547 -9.907106781186547 3
      vertex 10.855570233019602 -10.031469612302544 0
      vertex 11.007106781186547 -9.907106781186547 0
    endloop
  endfacet
  facet normal 0.7730104533627414 -0.63439328416364 0
    outer loop
      vertex 11.131469612302544 -9.7555702330196 3
      vertex 11.007106781186547 -9.907106781186547 0
      vertex 11.131469612302544 -9.7555702330196 0
    endloop
  endfacet
  facet normal 0.8819212643483548 -0.4713967368259979 0
    outer loop
      vertex 11.223879532511285 -9.582683432365089 3
      vertex 11.131469612302544 -9.7555702330196 0
      vertex 11.223879532511285 -9.582683432365089 0
    endloop
  endfacet
  facet normal 0.9569403357322079 -0.2902846772544653 0
    outer loop
      vertex 11.28078528040323 -9.395090322016127 3
      vertex 11.223879532511285 -9.582683432365089 0
      vertex 11.28078528040323 -9.395090322016127 0
    endloop
  endfacet
  facet normal 0.9951847266721968 -0.09801714032956084 0
    outer loop
      vertex 11.299999999999999 -9.2 3
      vertex 11.28078528040323 -9.395090322016127 0
      vertex 11.299999999999999 -9.2 0
    endloop
  endfacet
  facet normal 0.09801714032956084 -0.9951847266721968 0
    outer loop
      vertex 10.299999999999999 -10.2 3
      vertex 10.299999999999999 -10.2 0
      vertex 10.495090322016127 -10.18078528040323 3
    endloop
  endfacet
  facet normal 0.2902846772544653 -0.9569403357322079 0
    outer loop
      vertex 10.495090322016127 -10.18078528040323 3
      vertex 10.495090322016127 -10.18078528040323 0
      vertex 10.682683432365089 -10.123879532511285 3
    endloop
  endfacet
  facet normal 0.47139673682599414 -0.8819212643483569 0
    outer loop
      vertex 10.682683432365089 -10.123879532511285 3
      vertex 10.682683432365089 -10.123879532511285 0
      vertex 10.855570233019602 -10.031469612302544 3
    endloop
  endfacet
  facet normal 0.6343932841636445 -0.7730104533627378 0
    outer loop
      vertex 10.855570233019602 -10.031469612302544 3
      vertex 10.855570233019602 -10.031469612302544 0
      vertex 11.007106781186547 -9.907106781186547 3
    endloop
  endfacet
  facet normal 0.7730104533627414 -0.63439328416364 0
    outer loop
      vertex 11.007106781186547 -9.907106781186547 3
      vertex 11.007106781186547 -9.907106781186547 0
      vertex 11.131469612302544 -9.7555702330196 3
    endloop
  endfacet
  facet normal 0.8819212643483548 -0.4713967368259979 0
    outer loop
      vertex 11.131469612302544 -9.7555702330196 3
      vertex 11.131469612302544 -9.7555702330196 0
      vertex 11.223879532511285 -9.582683432365089 3
    endloop
  endfacet
  facet normal 0.9569403357322079 -0.2902846772544653 0
    outer loop
      vertex 11.223879532511285 -9.582683432365089 3
      vertex 11.223879532511285 -9.582683432365089 0
      vertex 11.28078528040323 -9.395090322016127 3
    endloop
  endfacet
  facet normal 0.9951847266721968 -0.09801714032956084 0
    outer loop
      vertex 11.28078528040323 -9.395090322016127 3
      vertex 11.28078528040323 -9.395090322016127 0
      vertex 11.299999999999999 -9.2 3
    endloop
  endfacet
  facet normal 0 0 1
    outer loop
      vertex 9.799999999999999 -8.7 3
      vertex 11.007106781186547 -9.907106781186547 3
      vertex 11.131469612302544 -9.7555702330196 3
    endloop
  endfacet
  facet normal 0 0 1
    outer loop
      vertex 9.799999999999999 -8.7 3
      vertex 11.131469612302544 -9.7555702330196 3
      vertex 11.223879532511285 -9.582683432365089 3
    endloop
  endfacet
  facet normal 0 0 1
    outer loop
      vertex 9.799999999999999 -8.7 3
      vertex 11.223879532511285 -9.582683432365089 3
      vertex 11.28078528040323 -9.395090322016127 3
    endloop
  endfacet
  facet normal 0 0 1
    outer loop
      vertex 9.799999999999999 -8.7 3
      vertex 11.28078528040323 -9.395090322016127 3
      vertex 11.299999999999999 -9.2 3
    endloop
  endfacet
  facet normal 1 0 0
    outer loop
      vertex 11.299999999999999 -9.2 3
      vertex 11.299999999999999 -9.2 0
      vertex 11.299999999999999 9.2 0
    endloop
  endfacet
  facet normal 0 0 1
    outer loop
      vertex 9.799999999999999 -8.7 3
      vertex 11.299999999999999 -9.2 3
      vertex 9.799999999999999 8.7 3
    endloop
  endfacet
  facet normal 0 1 0
    outer loop
      vertex -10.299999999999999 10.2 3
      vertex 10.299999999999999 10.2 3
      vertex 10.299999999999999 10.2 0
    endloop
  endfacet
  facet normal 0 0 1
    outer loop
      vertex -10.299999999999999 10.2 3
      vertex 9.799999999999999 8.7 3
      vertex 10.299999999999999 10.2 3
    endloop
  endfacet
  facet normal 1 0 0
    outer loop
      vertex 11.299999999999999 -9.2 3
      vertex 11.299999999999999 9.2 0
      vertex 11.299999999999999 9.2 3
    endloop
  endfacet
  facet normal 0 0 1
    outer loop
      vertex 11.299999999999999 -9.2 3
      vertex 10.299999999999999 10.2 3
      vertex 9.799999999999999 8.7 3
    endloop
  endfacet
  facet normal 0 0 1
    outer loop
      vertex 11.299999999999999 -9.2 3
      vertex 10.495090322016127 10.18078528040323 3
      vertex 10.299999999999999 10.2 3
    endloop
  endfacet
  facet normal 0 0 1
    outer loop
      vertex 11.299999999999999 -9.2 3
      vertex 10.682683432365089 10.123879532511285 3
      vertex 10.495090322016127 10.18078528040323 3
    endloop
  endfacet
  facet normal 0 0 1
    outer loop
      vertex 11.299999999999999 -9.2 3
      vertex 10.855570233019602 10.031469612302544 3
      vertex 10.682683432365089 10.123879532511285 3
    endloop
  endfacet
  facet normal 0 0 1
    outer loop
      vertex 11.299999999999999 -9.2 3
      vertex 11.299999999999999 9.2 3
      vertex 11.28078528040323 9.395090322016127 3
    endloop
  endfacet
  facet normal 0 0 1
    outer loop
      vertex 11.299999999999999 -9.2 3
      vertex 11.223879532511285 9.582683432365089 3
      vertex 11.131469612302544 9.7555702330196 3
    endloop
  endfacet
  facet normal 0 0 1
    outer loop
      vertex 11.299999999999999 -9.2 3
      vertex 11.131469612302544 9.7555702330196 3
      vertex 11.007106781186547 9.907106781186547 3
    endloop
  endfacet
  facet normal 0 0 1
    outer loop
      vertex 11.299999999999999 -9.2 3
      vertex 11.28078528040323 9.395090322016127 3
      vertex 11.223879532511285 9.582683432365089 3
    endloop
  endfacet
  facet normal 0 0 1
    outer loop
      vertex 11.299999999999999 -9.2 3
      vertex 11.007106781186547 9.907106781186547 3
      vertex 10.855570233019602 10.031469612302544 3
    endloop
  endfacet
  facet normal 0.09801714032956084 0.9951847266721968 0
    outer loop
      vertex 10.299999999999999 10.2 3
      vertex 10.495090322016127 10.18078528040323 0
      vertex 10.299999999999999 10.2 0
    endloop
  endfacet
  facet normal 0.2902846772544653 0.9569403357322079 0
    outer loop
      vertex 10.495090322016127 10.18078528040323 3
      vertex 10.682683432365089 10.123879532511285 0
      vertex 10.495090322016127 10.18078528040323 0
    endloop
  endfacet
  facet normal 0.47139673682599414 0.8819212643483569 0
    outer loop
      vertex 10.682683432365089 10.123879532511285 3
      vertex 10.855570233019602 10.031469612302544 0
      vertex 10.682683432365089 10.123879532511285 0
    endloop
  endfacet
  facet normal 0.6343932841636445 0.7730104533627378 0
    outer loop
      vertex 10.855570233019602 10.031469612302544 3
      vertex 11.007106781186547 9.907106781186547 0
      vertex 10.855570233019602 10.031469612302544 0
    endloop
  endfacet
  facet normal 0.9951847266721968 0.09801714032956084 0
    outer loop
      vertex 11.28078528040323 9.395090322016127 3
      vertex 11.299999999999999 9.2 0
      vertex 11.28078528040323 9.395090322016127 0
    endloop
  endfacet
  facet normal 0.9569403357322079 0.2902846772544653 0
    outer loop
      vertex 11.223879532511285 9.582683432365089 3
      vertex 11.28078528040323 9.395090322016127 0
      vertex 11.223879532511285 9.582683432365089 0
    endloop
  endfacet
  facet normal 0.8819212643483548 0.4713967368259979 0
    outer loop
      vertex 11.131469612302544 9.7555702330196 3
      vertex 11.223879532511285 9.582683432365089 0
      vertex 11.131469612302544 9.7555702330196 0
    endloop
  endfacet
  facet normal 0.7730104533627414 0.63439328416364 0
    outer loop
      vertex 11.007106781186547 9.907106781186547 3
      vertex 11.131469612302544 9.7555702330196 0
      vertex 11.007106781186547 9.907106781186547 0
    endloop
  endfacet
  facet normal 0.09801714032956084 0.9951847266721968 -2.446526489612333e-19
    outer loop
      vertex 10.299999999999999 10.2 3
      vertex 10.495090322016127 10.18078528040323 3
      vertex 10.495090322016127 10.18078528040323 0
    endloop
  endfacet
  facet normal 0.2902846772544653 0.9569403357322079 1.3712208537251859e-18
    outer loop
      vertex 10.495090322016127 10.18078528040323 3
      vertex 10.682683432365089 10.123879532511285 3
      vertex 10.682683432365089 10.123879532511285 0
    endloop
  endfacet
  facet normal 0.47139673682599414 0.8819212643483569 4.119206161357444e-20
    outer loop
      vertex 10.682683432365089 10.123879532511285 3
      vertex 10.855570233019602 10.031469612302544 3
      vertex 10.855570233019602 10.031469612302544 0
    endloop
  endfacet
  facet normal 0.6343932841636445 0.7730104533627378 -3.412261475631027e-19
    outer loop
      vertex 10.855570233019602 10.031469612302544 3
      vertex 11.007106781186547 9.907106781186547 3
      vertex 11.007106781186547 9.907106781186547 0
    endloop
  endfacet
  facet normal 0.9951847266721968 0.09801714032956084 0
    outer loop
      vertex 11.299999999999999 9.2 3
      vertex 11.299999999999999 9.2 0
      vertex 11.28078528040323 9.395090322016127 3
    endloop
  endfacet
  facet normal 0.9569403357322079 0.2902846772544653 0
    outer loop
      vertex 11.28078528040323 9.395090322016127 3
      vertex 11.28078528040323 9.395090322016127 0
      vertex 11.223879532511285 9.582683432365089 3
    endloop
  endfacet
  facet normal 0.8819212643483548 0.4713967368259979 0
    outer loop
      vertex 11.223879532511285 9.582683432365089 3
      vertex 11.223879532511285 9.582683432365089 0
      vertex 11.131469612302544 9.7555702330196 3
    endloop
  endfacet
  facet normal 0.7730104533627414 0.63439328416364 0
    outer loop
      vertex 11.131469612302544 9.7555702330196 3
      vertex 11.131469612302544 9.7555702330196 0
      vertex 11.007106781186547 9.907106781186547 3
    endloop
  endfacet
  facet normal 1 0 0
    outer loop
      vertex -9.799999999999999 -8.7 3
      vertex -9.799999999999999 -8.7 0
      vertex -9.799999999999999 8.7 3
    endloop
  endfacet
  facet normal 0 1 0
    outer loop
      vertex -9.799999999999999 -8.7 3
      vertex 9.799999999999999 -8.7 0
      vertex -9.799999999999999 -8.7 0
    endloop
  endfacet
  facet normal 1 0 0
    outer loop
      vertex -9.799999999999999 8.7 3
      vertex -9.799999999999999 -8.7 0
      vertex -9.799999999999999 8.7 0
    endloop
  endfacet
  facet normal 0 -1 0
    outer loop
      vertex -9.799999999999999 8.7 3
      vertex -9.799999999999999 8.7 0
      vertex 9.799999999999999 8.7 3
    endloop
  endfacet
  facet normal 0 1 0
    outer loop
      vertex -9.799999999999999 -8.7 3
      vertex 9.799999999999999 -8.7 3
      vertex 9.799999999999999 -8.7 0
    endloop
  endfacet
  facet normal -1 0 0
    outer loop
      vertex 9.799999999999999 -8.7 3
      vertex 9.799999999999999 8.7 0
      vertex 9.799999999999999 -8.7 0
    endloop
  endfacet
  facet normal 0 -1 0
    outer loop
      vertex 9.799999999999999 8.7 3
      vertex -9.799999999999999 8.7 0
      vertex 9.799999999999999 8.7 0
    endloop
  endfacet
  facet normal -1 0 0
    outer loop
      vertex 9.799999999999999 -8.7 3
      vertex 9.799999999999999 8.7 3
      vertex 9.799999999999999 8.7 0
    endloop
  endfacet
  facet normal -1 0 0
    outer loop
      vertex -12.6 -11.362499999999999 -3
      vertex -12.6 -11.362499999999999 0
      vertex -12.6 11.362499999999999 0
    endloop
  endfacet
  facet normal 0 0 -1
    outer loop
      vertex -12.6 -11.362499999999999 -3
      vertex -1.6454482671904338 -2.8500000000000005 -3
      vertex 12.6 -11.362499999999999 -3
    endloop
  endfacet
  facet normal 0 -1 0
    outer loop
      vertex -12.6 -11.362499999999999 -3
      vertex 12.6 -11.362499999999999 0
      vertex -12.6 -11.362499999999999 0
    endloop
  endfacet
  facet normal 0 0 -1
    outer loop
      vertex -12.6 -11.362499999999999 -3
      vertex -3.2908965343808676 0 -3
      vertex -1.6454482671904338 -2.8500000000000005 -3
    endloop
  endfacet
  facet normal 0 0 1
    outer loop
      vertex -12.6 -11.362499999999999 0
      vertex -11.007106781186547 -9.907106781186547 0
      vertex -11.131469612302544 -9.7555702330196 0
    endloop
  endfacet
  facet normal 0 0 1
    outer loop
      vertex -12.6 -11.362499999999999 0
      vertex -10.855570233019602 -10.031469612302544 0
      vertex -11.007106781186547 -9.907106781186547 0
    endloop
  endfacet
  facet normal 0 0 1
    outer loop
      vertex -12.6 -11.362499999999999 0
      vertex -11.131469612302544 -9.7555702330196 0
      vertex -11.223879532511285 -9.582683432365089 0
    endloop
  endfacet
  facet normal 0 0 1
    outer loop
      vertex -12.6 -11.362499999999999 0
      vertex -11.28078528040323 -9.395090322016127 0
      vertex -11.299999999999999 -9.2 0
    endloop
  endfacet
  facet normal 0 0 1
    outer loop
      vertex -12.6 -11.362499999999999 0
      vertex -11.223879532511285 -9.582683432365089 0
      vertex -11.28078528040323 -9.395090322016127 0
    endloop
  endfacet
  facet normal 0 0 1
    outer loop
      vertex -12.6 -11.362499999999999 0
      vertex -10.682683432365089 -10.123879532511285 0
      vertex -10.855570233019602 -10.031469612302544 0
    endloop
  endfacet
  facet normal 0 0 1
    outer loop
      vertex -12.6 -11.362499999999999 0
      vertex -10.495090322016127 -10.18078528040323 0
      vertex -10.682683432365089 -10.123879532511285 0
    endloop
  endfacet
  facet normal 0 0 1
    outer loop
      vertex -12.6 -11.362499999999999 0
      vertex -10.299999999999999 -10.2 0
      vertex -10.495090322016127 -10.18078528040323 0
    endloop
  endfacet
  facet normal 0 0 1
    outer loop
      vertex -12.6 -11.362499999999999 0
      vertex -11.299999999999999 -9.2 0
      vertex -11.299999999999999 9.2 0
    endloop
  endfacet
  facet normal 0 0 1
    outer loop
      vertex -12.6 -11.362499999999999 0
      vertex 12.6 -11.362499999999999 0
      vertex -10.299999999999999 -10.2 0
    endloop
  endfacet
  facet normal 0 0 1
    outer loop
      vertex -1.000026419435284 -1.4966453021445814 0
      vertex -9.799999999999999 -8.7 0
      vertex 9.799999999999999 -8.7 0
    endloop
  endfacet
  facet normal 0 0 1
    outer loop
      vertex -1.2727922061357857 -1.2727922061357857 0
      vertex -1.4966453021445814 -1.000026419435284 0
      vertex -9.799999999999999 -8.7 0
    endloop
  endfacet
  facet normal 0 0 1
    outer loop
      vertex -1.000026419435284 -1.4966453021445814 0
      vertex -1.2727922061357857 -1.2727922061357857 0
      vertex -9.799999999999999 -8.7 0
    endloop
  endfacet
  facet normal 0 0 1
    outer loop
      vertex -1.662983158520316 -0.6888301782571616 0
      vertex -1.7654135047258148 -0.35116257962903086 0
      vertex -9.799999999999999 -8.7 0
    endloop
  endfacet
  facet normal 0 0 1
    outer loop
      vertex -1.7654135047258148 -0.35116257962903086 0
      vertex -1.8 0 0
      vertex -9.799999999999999 -8.7 0
    endloop
  endfacet
  facet normal 0 0 1
    outer loop
      vertex -1.662983158520316 -0.6888301782571616 0
      vertex -9.799999999999999 -8.7 0
      vertex -1.4966453021445814 -1.000026419435284 0
    endloop
  endfacet
  facet normal 0 0 1
    outer loop
      vertex -1.8 0 0
      vertex -1.7654135047258148 0.35116257962903086 0
      vertex -9.799999999999999 -8.7 0
    endloop
  endfacet
  facet normal 0 0 1
    outer loop
      vertex -1.7654135047258148 0.35116257962903086 0
      vertex -1.662983158520316 0.6888301782571616 0
      vertex -9.799999999999999 -8.7 0
    endloop
  endfacet
  facet normal 0 0 1
    outer loop
      vertex -1.662983158520316 0.6888301782571616 0
      vertex -1.4966453021445814 1.000026419435284 0
      vertex -9.799999999999999 -8.7 0
    endloop
  endfacet
  facet normal 0 0 -1
    outer loop
      vertex -12.6 -11.362499999999999 -3
      vertex -12.6 11.362499999999999 -3
      vertex -3.2908965343808676 0 -3
    endloop
  endfacet
  facet normal -1 0 0
    outer loop
      vertex -12.6 -11.362499999999999 -3
      vertex -12.6 11.362499999999999 0
      vertex -12.6 11.362499999999999 -3
    endloop
  endfacet
  facet normal 0 0 -1
    outer loop
      vertex -12.6 11.362499999999999 -3
      vertex -1.6454482671904338 2.8500000000000005 -3
      vertex -3.2908965343808676 0 -3
    endloop
  endfacet
  facet normal 0 0 -1
    outer loop
      vertex -12.6 11.362499999999999 -3
      vertex 1.6454482671904338 2.8500000000000005 -3
      vertex -1.6454482671904338 2.8500000000000005 -3
    endloop
  endfacet
  facet normal 0 1 0
    outer loop
      vertex -12.6 11.362499999999999 -3
      vertex -12.6 11.362499999999999 0
      vertex 12.6 11.362499999999999 -3
    endloop
  endfacet
  facet normal 0 0 1
    outer loop
      vertex -12.6 -11.362499999999999 0
      vertex -11.299999999999999 9.2 0
      vertex -12.6 11.362499999999999 0
    endloop
  endfacet
  facet normal 0 0 1
    outer loop
      vertex -1.4966453021445814 1.000026419435284 0
      vertex -9.799999999999999 8.7 0
      vertex -9.799999999999999 -8.7 0
    endloop
  endfacet
  facet normal 0 0 1
    outer loop
      vertex -12.6 11.362499999999999 0
      vertex -11.299999999999999 9.2 0
      vertex -11.28078528040323 9.395090322016127 0
    endloop
  endfacet
  facet normal 0 0 1
    outer loop
      vertex -12.6 11.362499999999999 0
      vertex -11.28078528040323 9.395090322016127 0
      vertex -11.223879532511285 9.582683432365089 0
    endloop
  endfacet
  facet normal 0 0 1
    outer loop
      vertex -12.6 11.362499999999999 0
      vertex -11.223879532511285 9.582683432365089 0
      vertex -11.131469612302544 9.7555702330196 0
    endloop
  endfacet
  facet normal 0 0 1
    outer loop
      vertex -12.6 11.362499999999999 0
      vertex -11.131469612302544 9.7555702330196 0
      vertex -11.007106781186547 9.907106781186547 0
    endloop
  endfacet
  facet normal 0 0 1
    outer loop
      vertex -12.6 11.362499999999999 0
      vertex -11.007106781186547 9.907106781186547 0
      vertex -10.855570233019602 10.031469612302544 0
    endloop
  endfacet
  facet normal 0 0 1
    outer loop
      vertex -12.6 11.362499999999999 0
      vertex -10.855570233019602 10.031469612302544 0
      vertex -10.682683432365089 10.123879532511285 0
    endloop
  endfacet
  facet normal 0 0 1
    outer loop
      vertex -12.6 11.362499999999999 0
      vertex -10.682683432365089 10.123879532511285 0
      vertex -10.495090322016127 10.18078528040323 0
    endloop
  endfacet
  facet normal 0 0 1
    outer loop
      vertex -12.6 11.362499999999999 0
      vertex -10.495090322016127 10.18078528040323 0
      vertex -10.299999999999999 10.2 0
    endloop
  endfacet
  facet normal 0 0 1
    outer loop
      vertex -1.4966453021445814 1.000026419435284 0
      vertex -1.2727922061357857 1.2727922061357857 0
      vertex -9.799999999999999 8.7 0
    endloop
  endfacet
  facet normal 0 0 1
    outer loop
      vertex -1.2727922061357857 1.2727922061357857 0
      vertex -1.000026419435284 1.4966453021445814 0
      vertex -9.799999999999999 8.7 0
    endloop
  endfacet
  facet normal 0 0 1
    outer loop
      vertex -1.000026419435284 1.4966453021445814 0
      vertex -0.6888301782571616 1.662983158520316 0
      vertex -9.799999999999999 8.7 0
    endloop
  endfacet
  facet normal 0 0 1
    outer loop
      vertex -0.6888301782571616 1.662983158520316 0
      vertex -0.35116257962903086 1.7654135047258148 0
      vertex -9.799999999999999 8.7 0
    endloop
  endfacet
  facet normal 0 0 1
    outer loop
      vertex -0.35116257962903086 1.7654135047258148 0
      vertex 0 1.8 0
      vertex -9.799999999999999 8.7 0
    endloop
  endfacet
  facet normal 0 0 1
    outer loop
      vertex 0.35116257962903086 1.7654135047258148 0
      vertex -9.799999999999999 8.7 0
      vertex 0 1.8 0
    endloop
  endfacet
  facet normal 0 0 1
    outer loop
      vertex 0.35116257962903086 1.7654135047258148 0
      vertex 0.6888301782571616 1.662983158520316 0
      vertex -9.799999999999999 8.7 0
    endloop
  endfacet
  facet normal 0 0 1
    outer loop
      vertex 0.6888301782571616 1.662983158520316 0
      vertex 1.000026419435284 1.4966453021445814 0
      vertex -9.799999999999999 8.7 0
    endloop
  endfacet
  facet normal 0 0 1
    outer loop
      vertex -12.6 11.362499999999999 0
      vertex -10.299999999999999 10.2 0
      vertex 10.299999999999999 10.2 0
    endloop
  endfacet
  facet normal 0 -1 0
    outer loop
      vertex -12.6 -11.362499999999999 -3
      vertex 12.6 -11.362499999999999 -3
      vertex 12.6 -11.362499999999999 0
    endloop
  endfacet
  facet normal 0 0 -1
    outer loop
      vertex -1.6454482671904338 -2.8500000000000005 -3
      vertex 1.6454482671904338 -2.8500000000000005 -3
      vertex 12.6 -11.362499999999999 -3
    endloop
  endfacet
  facet normal 0 0 -1
    outer loop
      vertex 1.6454482671904338 -2.8500000000000005 -3
      vertex 3.2908965343808676 0 -3
      vertex 12.6 -11.362499999999999 -3
    endloop
  endfacet
  facet normal 1 0 0
    outer loop
      vertex 12.6 -11.362499999999999 -3
      vertex 12.6 11.362499999999999 -3
      vertex 12.6 -11.362499999999999 0
    endloop
  endfacet
  facet normal 0 0 1
    outer loop
      vertex 12.6 -11.362499999999999 0
      vertex 10.299999999999999 -10.2 0
      vertex -10.299999999999999 -10.2 0
    endloop
  endfacet
  facet normal 0 0 1
    outer loop
      vertex -1.000026419435284 -1.4966453021445814 0
      vertex 9.799999999999999 -8.7 0
      vertex -0.6888301782571616 -1.662983158520316 0
    endloop
  endfacet
  facet normal 0 0 1
    outer loop
      vertex -0.6888301782571616 -1.662983158520316 0
      vertex 9.799999999999999 -8.7 0
      vertex -0.35116257962903086 -1.7654135047258148 0
    endloop
  endfacet
  facet normal 0 0 1
    outer loop
      vertex -0.35116257962903086 -1.7654135047258148 0
      vertex 9.799999999999999 -8.7 0
      vertex 0 -1.8 0
    endloop
  endfacet
  facet normal 0 0 1
    outer loop
      vertex 0 -1.8 0
      vertex 9.799999999999999 -8.7 0
      vertex 0.35116257962903086 -1.7654135047258148 0
    endloop
  endfacet
  facet normal 0 0 1
    outer loop
      vertex 0.35116257962903086 -1.7654135047258148 0
      vertex 9.799999999999999 -8.7 0
      vertex 0.6888301782571616 -1.662983158520316 0
    endloop
  endfacet
  facet normal 0 0 1
    outer loop
      vertex 0.6888301782571616 -1.662983158520316 0
      vertex 9.799999999999999 -8.7 0
      vertex 1.000026419435284 -1.4966453021445814 0
    endloop
  endfacet
  facet normal 0 0 1
    outer loop
      vertex 1.000026419435284 -1.4966453021445814 0
      vertex 9.799999999999999 -8.7 0
      vertex 1.2727922061357857 -1.2727922061357857 0
    endloop
  endfacet
  facet normal 0 0 1
    outer loop
      vertex 1.2727922061357857 -1.2727922061357857 0
      vertex 9.799999999999999 -8.7 0
      vertex 1.4966453021445814 -1.000026419435284 0
    endloop
  endfacet
  facet normal 0 0 1
    outer loop
      vertex 12.6 -11.362499999999999 0
      vertex 10.495090322016127 -10.18078528040323 0
      vertex 10.299999999999999 -10.2 0
    endloop
  endfacet
  facet normal 0 0 1
    outer loop
      vertex 12.6 -11.362499999999999 0
      vertex 10.682683432365089 -10.123879532511285 0
      vertex 10.495090322016127 -10.18078528040323 0
    endloop
  endfacet
  facet normal 0 0 1
    outer loop
      vertex 12.6 -11.362499999999999 0
      vertex 10.855570233019602 -10.031469612302544 0
      vertex 10.682683432365089 -10.123879532511285 0
    endloop
  endfacet
  facet normal 0 0 1
    outer loop
      vertex 12.6 -11.362499999999999 0
      vertex 11.007106781186547 -9.907106781186547 0
      vertex 10.855570233019602 -10.031469612302544 0
    endloop
  endfacet
  facet normal 0 0 1
    outer loop
      vertex 12.6 -11.362499999999999 0
      vertex 11.131469612302544 -9.7555702330196 0
      vertex 11.007106781186547 -9.907106781186547 0
    endloop
  endfacet
  facet normal 0 0 1
    outer loop
      vertex 12.6 -11.362499999999999 0
      vertex 11.223879532511285 -9.582683432365089 0
      vertex 11.131469612302544 -9.7555702330196 0
    endloop
  endfacet
  facet normal 0 0 1
    outer loop
      vertex 12.6 -11.362499999999999 0
      vertex 11.28078528040323 -9.395090322016127 0
      vertex 11.223879532511285 -9.582683432365089 0
    endloop
  endfacet
  facet normal 0 0 1
    outer loop
      vertex 12.6 -11.362499999999999 0
      vertex 11.299999999999999 -9.2 0
      vertex 11.28078528040323 -9.395090322016127 0
    endloop
  endfacet
  facet normal 0 0 1
    outer loop
      vertex 1.4966453021445814 -1.000026419435284 0
      vertex 9.799999999999999 -8.7 0
      vertex 9.799999999999999 8.7 0
    endloop
  endfacet
  facet normal 0 0 1
    outer loop
      vertex 12.6 -11.362499999999999 0
      vertex 12.6 11.362499999999999 0
      vertex 11.299999999999999 -9.2 0
    endloop
  endfacet
  facet normal 0 0 -1
    outer loop
      vertex 1.6454482671904338 2.8500000000000005 -3
      vertex 12.6 11.362499999999999 -3
      vertex 3.2908965343808676 0 -3
    endloop
  endfacet
  facet normal 0 0 -1
    outer loop
      vertex -12.6 11.362499999999999 -3
      vertex 12.6 11.362499999999999 -3
      vertex 1.6454482671904338 2.8500000000000005 -3
    endloop
  endfacet
  facet normal 0 1 0
    outer loop
      vertex -12.6 11.362499999999999 0
      vertex 12.6 11.362499999999999 0
      vertex 12.6 11.362499999999999 -3
    endloop
  endfacet
  facet normal 0 0 -1
    outer loop
      vertex 12.6 -11.362499999999999 -3
      vertex 3.2908965343808676 0 -3
      vertex 12.6 11.362499999999999 -3
    endloop
  endfacet
  facet normal 1 0 0
    outer loop
      vertex 12.6 -11.362499999999999 0
      vertex 12.6 11.362499999999999 -3
      vertex 12.6 11.362499999999999 0
    endloop
  endfacet
  facet normal 0 0 1
    outer loop
      vertex 1.4966453021445814 -1.000026419435284 0
      vertex 9.799999999999999 8.7 0
      vertex 1.662983158520316 -0.6888301782571616 0
    endloop
  endfacet
  facet normal 0 0 1
    outer loop
      vertex 1.662983158520316 -0.6888301782571616 0
      vertex 9.799999999999999 8.7 0
      vertex 1.7654135047258148 -0.35116257962903086 0
    endloop
  endfacet
  facet normal 0 0 1
    outer loop
      vertex 1.7654135047258148 -0.35116257962903086 0
      vertex 9.799999999999999 8.7 0
      vertex 1.8 0 0
    endloop
  endfacet
  facet normal 0 0 1
    outer loop
      vertex 1.4966453021445814 1.000026419435284 0
      vertex 1.662983158520316 0.6888301782571616 0
      vertex 9.799999999999999 8.7 0
    endloop
  endfacet
  facet normal 0 0 1
    outer loop
      vertex 1.7654135047258148 0.35116257962903086 0
      vertex 1.8 0 0
      vertex 9.799999999999999 8.7 0
    endloop
  endfacet
  facet normal 0 0 1
    outer loop
      vertex 1.7654135047258148 0.35116257962903086 0
      vertex 9.799999999999999 8.7 0
      vertex 1.662983158520316 0.6888301782571616 0
    endloop
  endfacet
  facet normal 0 0 1
    outer loop
      vertex 1.2727922061357857 1.2727922061357857 0
      vertex 9.799999999999999 8.7 0
      vertex 1.000026419435284 1.4966453021445814 0
    endloop
  endfacet
  facet normal 0 0 1
    outer loop
      vertex 1.4966453021445814 1.000026419435284 0
      vertex 9.799999999999999 8.7 0
      vertex 1.2727922061357857 1.2727922061357857 0
    endloop
  endfacet
  facet normal 0 0 1
    outer loop
      vertex 1.000026419435284 1.4966453021445814 0
      vertex 9.799999999999999 8.7 0
      vertex -9.799999999999999 8.7 0
    endloop
  endfacet
  facet normal 0 0 1
    outer loop
      vertex -12.6 11.362499999999999 0
      vertex 10.299999999999999 10.2 0
      vertex 12.6 11.362499999999999 0
    endloop
  endfacet
  facet normal 0 0 1
    outer loop
      vertex 12.6 11.362499999999999 0
      vertex 11.299999999999999 9.2 0
      vertex 11.299999999999999 -9.2 0
    endloop
  endfacet
  facet normal 0 0 1
    outer loop
      vertex 12.6 11.362499999999999 0
      vertex 10.299999999999999 10.2 0
      vertex 10.495090322016127 10.18078528040323 0
    endloop
  endfacet
  facet normal 0 0 1
    outer loop
      vertex 12.6 11.362499999999999 0
      vertex 10.495090322016127 10.18078528040323 0
      vertex 10.682683432365089 10.123879532511285 0
    endloop
  endfacet
  facet normal 0 0 1
    outer loop
      vertex 12.6 11.362499999999999 0
      vertex 10.682683432365089 10.123879532511285 0
      vertex 10.855570233019602 10.031469612302544 0
    endloop
  endfacet
  facet normal 0 0 1
    outer loop
      vertex 12.6 11.362499999999999 0
      vertex 11.223879532511285 9.582683432365089 0
      vertex 11.28078528040323 9.395090322016127 0
    endloop
  endfacet
  facet normal 0 0 1
    outer loop
      vertex 12.6 11.362499999999999 0
      vertex 11.28078528040323 9.395090322016127 0
      vertex 11.299999999999999 9.2 0
    endloop
  endfacet
  facet normal 0 0 1
    outer loop
      vertex 12.6 11.362499999999999 0
      vertex 11.131469612302544 9.7555702330196 0
      vertex 11.223879532511285 9.582683432365089 0
    endloop
  endfacet
  facet normal 0 0 1
    outer loop
      vertex 12.6 11.362499999999999 0
      vertex 10.855570233019602 10.031469612302544 0
      vertex 11.007106781186547 9.907106781186547 0
    endloop
  endfacet
  facet normal 0 0 1
    outer loop
      vertex 12.6 11.362499999999999 0
      vertex 11.007106781186547 9.907106781186547 0
      vertex 11.131469612302544 9.7555702330196 0
    endloop
  endfacet
endsolid OpenSCAD_Model
